<svg width="0" height="0" class="hidden">
  <symbol xmlns="http://www.w3.org/2000/svg" viewBox="0 0 24 24" id="icon-discord">
    <path d="M19.3034 5.33716C17.9344 4.71103 16.4805 4.2547 14.9629 4C14.7719 4.32899 14.5596 4.77471 14.411 5.12492C12.7969 4.89144 11.1944 4.89144 9.60255 5.12492C9.45397 4.77471 9.2311 4.32899 9.05068 4C7.52251 4.2547 6.06861 4.71103 4.70915 5.33716C1.96053 9.39111 1.21766 13.3495 1.5891 17.2549C3.41443 18.5815 5.17612 19.388 6.90701 19.9187C7.33151 19.3456 7.71356 18.73 8.04255 18.0827C7.41641 17.8492 6.82211 17.5627 6.24904 17.2231C6.39762 17.117 6.5462 17.0003 6.68416 16.8835C10.1438 18.4648 13.8911 18.4648 17.3082 16.8835C17.4568 17.0003 17.5948 17.117 17.7434 17.2231C17.1703 17.5627 16.576 17.8492 15.9499 18.0827C16.2789 18.73 16.6609 19.3456 17.0854 19.9187C18.8152 19.388 20.5875 18.5815 22.4033 17.2549C22.8596 12.7341 21.6806 8.80747 19.3034 5.33716ZM8.5201 14.8459C7.48007 14.8459 6.63107 13.9014 6.63107 12.7447C6.63107 11.5879 7.45884 10.6434 8.5201 10.6434C9.57071 10.6434 10.4303 11.5879 10.4091 12.7447C10.4091 13.9014 9.57071 14.8459 8.5201 14.8459ZM15.4936 14.8459C14.4535 14.8459 13.6034 13.9014 13.6034 12.7447C13.6034 11.5879 14.4323 10.6434 15.4936 10.6434C16.5442 10.6434 17.4038 11.5879 17.3825 12.7447C17.3825 13.9014 16.5548 14.8459 15.4936 14.8459Z"></path>
  </symbol>
  <symbol xmlns="http://www.w3.org/2000/svg" viewBox="0 -960 960 960" id="icon-favorite">
    <path d="m480-120-58-52q-101-91-167-157T150-447.5Q111-500 95.5-544T80-634q0-94 63-157t157-63q52 0 99 22t81 62q34-40 81-62t99-22q94 0 157 63t63 157q0 46-15.5 90T810-447.5Q771-395 705-329T538-172l-58 52Zm0-108q96-86 158-147.5t98-107q36-45.5 50-81t14-70.5q0-60-40-100t-100-40q-47 0-87 26.5T518-680h-76q-15-41-55-67.5T300-774q-60 0-100 40t-40 100q0 35 14 70.5t50 81q36 45.5 98 107T480-228Zm0-273Z"></path>
  </symbol>
  <symbol xmlns="http://www.w3.org/2000/svg" viewBox="0 0 24 24" id="icon-google-play">
    <path d="M3.60972 1.81396L13.793 12L3.61082 22.1864C3.41776 22.1048 3.24866 21.962 3.13555 21.7667C3.0474 21.6144 3.00098 21.4416 3.00098 21.2656V2.73453C3.00098 2.32109 3.25188 1.96625 3.60972 1.81396ZM14.5 12.707L16.802 15.009L5.86498 21.342L14.5 12.707ZM17.699 9.50896L20.5061 11.1347C20.9841 11.4114 21.1473 12.0232 20.8705 12.5011C20.783 12.6523 20.6574 12.778 20.5061 12.8655L17.698 14.491L15.207 12L17.699 9.50896ZM5.86498 2.65796L16.803 8.98996L14.5 11.293L5.86498 2.65796Z"></path>
  </symbol>
  <symbol xmlns="http://www.w3.org/2000/svg" viewBox="0 -960 960 960" id="icon-interests">
    <path d="m80-520 200-360 200 360H80Zm200 400q-66 0-113-47t-47-113q0-67 47-113.5T280-440q66 0 113 47t47 113q0 66-47 113t-113 47Zm0-80q33 0 56.5-23.5T360-280q0-33-23.5-56.5T280-360q-33 0-56.5 23.5T200-280q0 33 23.5 56.5T280-200Zm-64-400h128l-64-115-64 115Zm304 480v-320h320v320H520Zm80-80h160v-160H600v160Zm80-320q-57-48-95.5-81T523-659q-23-25-33-47t-10-47q0-45 31.5-76t78.5-31q27 0 50.5 12.5T680-813q16-22 39.5-34.5T770-860q47 0 78.5 31t31.5 76q0 25-10 47t-33 47q-23 25-61.5 58T680-520Zm0-105q72-60 96-85t24-41q0-13-7.5-21t-20.5-8q-10 0-19.5 5.5T729-755l-49 47-49-47q-14-14-23.5-19.5T588-780q-13 0-20.5 8t-7.5 21q0 16 24 41t96 85Zm0-78Zm-400 45Zm0 378Zm400 0Z"></path>
  </symbol>
  <symbol xmlns="http://www.w3.org/2000/svg" viewBox="0 -960 960 960" id="icon-language">
    <path d="M480-80q-82 0-155-31.5t-127.5-86Q143-252 111.5-325T80-480q0-83 31.5-155.5t86-127Q252-817 325-848.5T480-880q83 0 155.5 31.5t127 86q54.5 54.5 86 127T880-480q0 82-31.5 155t-86 127.5q-54.5 54.5-127 86T480-80Zm0-82q26-36 45-75t31-83H404q12 44 31 83t45 75Zm-104-16q-18-33-31.5-68.5T322-320H204q29 50 72.5 87t99.5 55Zm208 0q56-18 99.5-55t72.5-87H638q-9 38-22.5 73.5T584-178ZM170-400h136q-3-20-4.5-39.5T300-480q0-21 1.5-40.5T306-560H170q-5 20-7.5 39.5T160-480q0 21 2.5 40.5T170-400Zm216 0h188q3-20 4.5-39.5T580-480q0-21-1.5-40.5T574-560H386q-3 20-4.5 39.5T380-480q0 21 1.5 40.5T386-400Zm268 0h136q5-20 7.5-39.5T800-480q0-21-2.5-40.5T790-560H654q3 20 4.5 39.5T660-480q0 21-1.5 40.5T654-400Zm-16-240h118q-29-50-72.5-87T584-782q18 33 31.5 68.5T638-640Zm-234 0h152q-12-44-31-83t-45-75q-26 36-45 75t-31 83Zm-200 0h118q9-38 22.5-73.5T376-782q-56 18-99.5 55T204-640Z"></path>
  </symbol>
  <symbol xmlns="http://www.w3.org/2000/svg" viewBox="0 0 24 24" id="icon-hamburger">
    <path d="M3 4H21V6H3V4ZM3 11H21V13H3V11ZM3 18H21V20H3V18Z"></path>
  </symbol>
  <symbol xmlns="http://www.w3.org/2000/svg" viewBox="0 0 24 24" id="icon-linkedin">
    <path d="M18.3362 18.339H15.6707V14.1622C15.6707 13.1662 15.6505 11.8845 14.2817 11.8845C12.892 11.8845 12.6797 12.9683 12.6797 14.0887V18.339H10.0142V9.75H12.5747V10.9207H12.6092C12.967 10.2457 13.837 9.53325 15.1367 9.53325C17.8375 9.53325 18.337 11.3108 18.337 13.6245V18.339H18.3362ZM7.00373 8.57475C6.14573 8.57475 5.45648 7.88025 5.45648 7.026C5.45648 6.1725 6.14648 5.47875 7.00373 5.47875C7.85873 5.47875 8.55173 6.1725 8.55173 7.026C8.55173 7.88025 7.85798 8.57475 7.00373 8.57475ZM8.34023 18.339H5.66723V9.75H8.34023V18.339ZM19.6697 3H4.32923C3.59498 3 3.00098 3.5805 3.00098 4.29675V19.7033C3.00098 20.4202 3.59498 21 4.32923 21H19.6675C20.401 21 21.001 20.4202 21.001 19.7033V4.29675C21.001 3.5805 20.401 3 19.6675 3H19.6697Z"></path>
  </symbol>
  <symbol xmlns="http://www.w3.org/2000/svg" viewBox="0 -960 960 960" id="icon-location">
    <path d="M480-480q33 0 56.5-23.5T560-560q0-33-23.5-56.5T480-640q-33 0-56.5 23.5T400-560q0 33 23.5 56.5T480-480Zm0 294q122-112 181-203.5T720-552q0-109-69.5-178.5T480-800q-101 0-170.5 69.5T240-552q0 71 59 162.5T480-186Zm0 106Q319-217 239.5-334.5T160-552q0-150 96.5-239T480-880q127 0 223.5 89T800-552q0 100-79.5 217.5T480-80Zm0-480Z"></path>
  </symbol>
  <symbol xmlns="http://www.w3.org/2000/svg" viewBox="0 0 24 24" id="icon-mail">
    <path d="M3 3H21C21.5523 3 22 3.44772 22 4V20C22 20.5523 21.5523 21 21 21H3C2.44772 21 2 20.5523 2 20V4C2 3.44772 2.44772 3 3 3ZM12.0606 11.6829L5.64722 6.2377L4.35278 7.7623L12.0731 14.3171L19.6544 7.75616L18.3456 6.24384L12.0606 11.6829Z"></path>
  </symbol>
  <symbol xmlns="http://www.w3.org/2000/svg" viewBox="0 -960 960 960" id="icon-school">
    <path d="M480-120 200-272v-240L40-600l440-240 440 240v320h-80v-276l-80 44v240L480-120Zm0-332 274-148-274-148-274 148 274 148Zm0 241 200-108v-151L480-360 280-470v151l200 108Zm0-241Zm0 90Zm0 0Z"></path>
  </symbol>
  <symbol xmlns="http://www.w3.org/2000/svg" viewBox="0 -960 960 960" id="icon-settings">
    <path d="m370-80-16-128q-13-5-24.5-12T307-235l-119 50L78-375l103-78q-1-7-1-13.5v-27q0-6.5 1-13.5L78-585l110-190 119 50q11-8 23-15t24-12l16-128h220l16 128q13 5 24.5 12t22.5 15l119-50 110 190-103 78q1 7 1 13.5v27q0 6.5-2 13.5l103 78-110 190-118-50q-11 8-23 15t-24 12L590-80H370Zm70-80h79l14-106q31-8 57.5-23.5T639-327l99 41 39-68-86-65q5-14 7-29.5t2-31.5q0-16-2-31.5t-7-29.5l86-65-39-68-99 42q-22-23-48.5-38.5T533-694l-13-106h-79l-14 106q-31 8-57.5 23.5T321-633l-99-41-39 68 86 64q-5 15-7 30t-2 32q0 16 2 31t7 30l-86 65 39 68 99-42q22 23 48.5 38.5T427-266l13 106Zm42-180q58 0 99-41t41-99q0-58-41-99t-99-41q-59 0-99.5 41T342-480q0 58 40.5 99t99.5 41Zm-2-140Z"></path>
  </symbol>
  <symbol xmlns="http://www.w3.org/2000/svg" viewBox="0 -960 960 960" id="icon-timer">
    <path d="M360-840v-80h240v80H360Zm80 440h80v-240h-80v240Zm40 320q-74 0-139.5-28.5T226-186q-49-49-77.5-114.5T120-440q0-74 28.5-139.5T226-694q49-49 114.5-77.5T480-800q62 0 119 20t107 58l56-56 56 56-56 56q38 50 58 107t20 119q0 74-28.5 139.5T734-186q-49 49-114.5 77.5T480-80Zm0-80q116 0 198-82t82-198q0-116-82-198t-198-82q-116 0-198 82t-82 198q0 116 82 198t198 82Zm0-280Z"></path>
  </symbol>
  <symbol xmlns="http://www.w3.org/2000/svg" viewBox="0 0 32 32" id="icon-cpp">
    <path d="M29.86 8c-0.224-0.385-0.532-0.724-0.871-0.921l-11.755-6.787c-0.677-0.391-1.787-0.391-2.464 0l-11.755 6.787c-0.677 0.391-1.235 1.353-1.235 2.135v13.573c0 0.391 0.14 0.828 0.364 1.213 0.219 0.385 0.532 0.724 0.871 0.917l11.749 6.791c0.683 0.391 1.787 0.391 2.464 0l11.755-6.791c0.339-0.193 0.647-0.532 0.871-0.917s0.359-0.823 0.359-1.213v-13.573c0.005-0.391-0.135-0.828-0.353-1.213zM16 25.479c-5.229 0-9.479-4.249-9.479-9.479s4.249-9.479 9.479-9.479c3.385 0.005 6.511 1.812 8.208 4.733l-4.104 2.376c-0.849-1.464-2.411-2.365-4.104-2.371-2.615 0-4.74 2.125-4.74 4.74s2.125 4.74 4.74 4.74c1.693-0.005 3.255-0.907 4.104-2.371l4.104 2.376c-1.697 2.921-4.823 4.728-8.208 4.733zM25.479 16.527h-1.052v1.052h-1.057v-1.052h-1.052v-1.053h1.052v-1.052h1.057v1.052h1.052zM29.427 16.527h-1.052v1.052h-1.052v-1.052h-1.052v-1.053h1.052v-1.052h1.052v1.052h1.052z"></path>
  </symbol>
  <symbol xmlns="http://www.w3.org/2000/svg" viewBox="0 0 24 24" id="icon-css">
    <path d="M5.00006 3L4.35006 6.34H17.9401L17.5001 8.5H3.92006L3.26006 11.83H16.8501L16.0901 15.64L10.6101 17.45L5.86006 15.64L6.19006 14H2.85006L2.06006 18L9.91006 21L18.9601 18L20.1601 11.97L20.4001 10.76L21.9401 3H5.00006Z"></path>
  </symbol>
  <symbol xmlns="http://www.w3.org/2000/svg" viewBox="0 0 24 24" id="icon-github">
    <path d="M12.001 2C6.47598 2 2.00098 6.475 2.00098 12C2.00098 16.425 4.86348 20.1625 8.83848 21.4875C9.33848 21.575 9.52598 21.275 9.52598 21.0125C9.52598 20.775 9.51348 19.9875 9.51348 19.15C7.00098 19.6125 6.35098 18.5375 6.15098 17.975C6.03848 17.6875 5.55098 16.8 5.12598 16.5625C4.77598 16.375 4.27598 15.9125 5.11348 15.9C5.90098 15.8875 6.46348 16.625 6.65098 16.925C7.55098 18.4375 8.98848 18.0125 9.56348 17.75C9.65098 17.1 9.91348 16.6625 10.201 16.4125C7.97598 16.1625 5.65098 15.3 5.65098 11.475C5.65098 10.3875 6.03848 9.4875 6.67598 8.7875C6.57598 8.5375 6.22598 7.5125 6.77598 6.1375C6.77598 6.1375 7.61348 5.875 9.52598 7.1625C10.326 6.9375 11.176 6.825 12.026 6.825C12.876 6.825 13.726 6.9375 14.526 7.1625C16.4385 5.8625 17.276 6.1375 17.276 6.1375C17.826 7.5125 17.476 8.5375 17.376 8.7875C18.0135 9.4875 18.401 10.375 18.401 11.475C18.401 15.3125 16.0635 16.1625 13.8385 16.4125C14.201 16.725 14.5135 17.325 14.5135 18.2625C14.5135 19.6 14.501 20.675 14.501 21.0125C14.501 21.275 14.6885 21.5875 15.1885 21.4875C19.259 20.1133 21.9999 16.2963 22.001 12C22.001 6.475 17.526 2 12.001 2Z"></path>
  </symbol>
  <symbol xmlns="http://www.w3.org/2000/svg" viewBox="0 0 24 24" id="icon-flutter">
    <path d="M13.5039 2.00098L3.50391 12.001L6.58724 15.0843L19.6673 2.00098H13.5039ZM13.4985 11.1989L8.12328 16.6199L13.4956 21.9998H19.6842L14.2975 16.5999L19.6856 11.1998L13.4985 11.1989Z"></path>
  </symbol>
  <symbol xmlns="http://www.w3.org/2000/svg" viewBox="0 0 24 24" id="icon-nodejs">
    <path d="M12.8873 1.36173C12.3396 1.03958 11.6604 1.03958 11.1127 1.36173L3.36271 5.92056C2.8282 6.23498 2.5 6.8088 2.5 7.42894V16.571C2.5 17.1912 2.8282 17.765 3.36272 18.0794L5.98596 19.6225C7.31923 20.4068 9 19.4454 9 17.8986V7.74655H7V17.8986L4.5 16.428V7.57193L12 3.16016L19.5 7.57193V16.428L12 20.8398L10.2316 19.7996L9.21757 21.5234L11.1127 22.6382C11.6604 22.9604 12.3396 22.9604 12.8873 22.6382L20.6373 18.0794C21.1718 17.765 21.5 17.1912 21.5 16.571V7.42894C21.5 6.8088 21.1718 6.23498 20.6373 5.92056L12.8873 1.36173ZM13.9999 7.49998C12.6372 7.49998 11.6712 7.85114 11.0504 8.46993C10.4336 9.08484 10.3135 9.80885 10.3135 10.2313C10.3135 10.7862 10.4705 11.289 10.7951 11.7048C11.1076 12.1053 11.5199 12.3537 11.9146 12.5159C12.6341 12.8116 13.5358 12.9086 14.2587 12.9863L14.346 12.9957C15.1774 13.0856 15.7998 13.1627 16.2263 13.3411C16.4189 13.4217 16.4983 13.4954 16.531 13.5379C16.5524 13.5658 16.5934 13.6278 16.5934 13.7977C16.5934 14.0618 16.5027 14.2319 16.2204 14.3926C15.873 14.5904 15.2596 14.7396 14.3368 14.7396C13.4218 14.7396 12.7838 14.5705 12.4192 14.3181C12.1357 14.1218 11.9273 13.821 11.9822 13.1683L9.98923 13.0007C9.88075 14.29 10.3479 15.3167 11.2808 15.9625C12.1325 16.5521 13.2518 16.7396 14.3368 16.7396C15.414 16.7396 16.4289 16.5753 17.2098 16.1307C18.0558 15.6491 18.5934 14.8482 18.5934 13.7977C18.5934 13.2414 18.4381 12.7369 18.1162 12.3184C17.8054 11.9144 17.3942 11.6617 16.9981 11.496C16.2701 11.1915 15.3576 11.0932 14.6296 11.0147H14.6296L14.5609 11.0073C13.7274 10.9172 13.1036 10.8423 12.6748 10.666C12.4808 10.5863 12.4025 10.5137 12.3716 10.4742C12.3528 10.4501 12.3135 10.394 12.3135 10.2313C12.3135 10.1538 12.3363 10.0121 12.4624 9.88637C12.5847 9.76449 12.9618 9.49998 13.9999 9.49998C14.9904 9.49998 15.5674 9.60515 15.897 9.80064C16.1123 9.92838 16.3451 10.1633 16.3761 10.9329L18.3745 10.8524C18.3243 9.60675 17.8694 8.64527 16.9173 8.08051C16.0795 7.58349 15.0094 7.49998 13.9999 7.49998Z"></path>
  </symbol>
  <symbol xmlns="http://www.w3.org/2000/svg" viewBox="0 0 24 24" id="icon-database">
    <path d="M11 7V4C11 3.44772 11.4477 3 12 3H21C21.5523 3 22 3.44772 22 4V20C22 20.5523 21.5523 21 21 21H3C2.44772 21 2 20.5523 2 20V8C2 7.44772 2.44772 7 3 7H11ZM5 16V18H10V16H5ZM14 16V18H19V16H14ZM14 13V15H19V13H14ZM14 10V12H19V10H14ZM5 13V15H10V13H5Z"></path>
  </symbol>
  <symbol xmlns="http://www.w3.org/2000/svg" viewBox="0 0 24 24" id="icon-react">
    <path d="M12.001 13.5001C11.1725 13.5001 10.501 12.8285 10.501 12.0001C10.501 11.1716 11.1725 10.5001 12.001 10.5001C12.8294 10.5001 13.501 11.1716 13.501 12.0001C13.501 12.8285 12.8294 13.5001 12.001 13.5001ZM11.4733 16.4945C11.6479 16.705 11.8239 16.908 12.001 17.103C12.178 16.908 12.3541 16.705 12.5286 16.4945C12.3538 16.4982 12.1779 16.5001 12.001 16.5001C11.824 16.5001 11.6481 16.4982 11.4733 16.4945ZM9.47837 16.3694C8.6762 16.2846 7.91035 16.1603 7.19268 16.0016C7.11832 16.3512 7.06134 16.6904 7.02243 17.0166C6.83358 18.6 7.09805 19.5617 7.50098 19.7943C7.9039 20.0269 8.86893 19.7751 10.1458 18.8199C10.4088 18.6231 10.6741 18.4042 10.9397 18.1649C10.4434 17.6228 9.95287 17.0217 9.47837 16.3694ZM16.8093 16.0016C16.0916 16.1603 15.3257 16.2846 14.5236 16.3694C14.0491 17.0217 13.5585 17.6228 13.0622 18.1649C13.3279 18.4042 13.5931 18.6231 13.8562 18.8199C15.133 19.7751 16.0981 20.0269 16.501 19.7943C16.9039 19.5617 17.1684 18.6 16.9795 17.0166C16.9406 16.6904 16.8836 16.3512 16.8093 16.0016ZM18.2598 15.6136C18.8364 18.2526 18.5328 20.3533 17.251 21.0933C15.9691 21.8334 13.9981 21.046 12.001 19.2271C10.0038 21.046 8.03282 21.8334 6.75098 21.0933C5.46913 20.3533 5.16555 18.2526 5.74217 15.6136C3.16842 14.7935 1.50098 13.4802 1.50098 12.0001C1.50098 10.5199 3.16842 9.20668 5.74217 8.38654C5.16555 5.74754 5.46913 3.64687 6.75098 2.9068C8.03282 2.16673 10.0038 2.95415 12.001 4.77302C13.9981 2.95415 15.9691 2.16673 17.251 2.9068C18.5328 3.64687 18.8364 5.74754 18.2598 8.38654C20.8335 9.20668 22.501 10.5199 22.501 12.0001C22.501 13.4802 20.8335 14.7935 18.2598 15.6136ZM10.9397 5.83521C10.6741 5.59597 10.4088 5.37703 10.1458 5.18024C8.86893 4.22499 7.9039 3.97321 7.50098 4.20584C7.09805 4.43847 6.83358 5.4001 7.02243 6.9835C7.06134 7.30969 7.11832 7.6489 7.19268 7.99857C7.91035 7.83985 8.6762 7.71556 9.47837 7.63078C9.95287 6.97848 10.4434 6.37737 10.9397 5.83521ZM14.5236 7.63078C15.3257 7.71556 16.0916 7.83985 16.8093 7.99857C16.8836 7.6489 16.9406 7.30969 16.9795 6.9835C17.1684 5.4001 16.9039 4.43847 16.501 4.20584C16.0981 3.97321 15.133 4.22499 13.8562 5.18024C13.5931 5.37703 13.3279 5.59597 13.0622 5.83521C13.5585 6.37737 14.0491 6.97848 14.5236 7.63078ZM12.5286 7.50565C12.3541 7.29515 12.178 7.09211 12.001 6.89711C11.8239 7.09211 11.6479 7.29515 11.4733 7.50565C11.6481 7.50194 11.824 7.50007 12.001 7.50007C12.1779 7.50007 12.3538 7.50194 12.5286 7.50565ZM8.37252 14.7042C8.28191 14.5547 8.19233 14.4033 8.10386 14.2501C8.01539 14.0968 7.92906 13.9435 7.84488 13.7903C7.74985 14.0467 7.66205 14.3007 7.58169 14.5515C7.83908 14.6074 8.10295 14.6583 8.37252 14.7042ZM10.3049 14.9377C10.8579 14.9788 11.4251 15.0001 12.001 15.0001C12.5769 15.0001 13.144 14.9788 13.697 14.9377C14.0091 14.4793 14.3111 13.9988 14.5991 13.5001C14.887 13.0013 15.1522 12.4995 15.393 12.0001C15.1522 11.5006 14.887 10.9988 14.5991 10.5001C14.3111 10.0013 14.0091 9.52081 13.697 9.06246C13.144 9.02133 12.5769 9.00007 12.001 9.00007C11.4251 9.00007 10.8579 9.02133 10.3049 9.06246C9.99283 9.52081 9.69086 10.0013 9.4029 10.5001C9.11494 10.9988 8.8498 11.5006 8.60892 12.0001C8.8498 12.4995 9.11494 13.0013 9.4029 13.5001C9.69086 13.9988 9.99283 14.4793 10.3049 14.9377ZM16.1571 10.2098C16.2521 9.9534 16.3399 9.6994 16.4203 9.44859C16.1629 9.39278 15.899 9.34182 15.6294 9.29591C15.72 9.44543 15.8096 9.59683 15.8981 9.75007C15.9866 9.9033 16.0729 10.0566 16.1571 10.2098ZM6.13143 9.83671C5.79142 9.94714 5.46917 10.0674 5.16723 10.1968C3.70154 10.825 3.00098 11.5348 3.00098 12.0001C3.00098 12.4653 3.70154 13.1752 5.16723 13.8033C5.46917 13.9327 5.79142 14.053 6.13143 14.1634C6.35281 13.4625 6.6281 12.7371 6.95576 12.0001C6.6281 11.263 6.35281 10.5376 6.13143 9.83671ZM7.58169 9.44859C7.66205 9.6994 7.74985 9.9534 7.84488 10.2098C7.92906 10.0566 8.01539 9.9033 8.10386 9.75007C8.19233 9.59683 8.28191 9.44543 8.37252 9.29591C8.10295 9.34182 7.83908 9.39278 7.58169 9.44859ZM17.8705 14.1634C18.2105 14.053 18.5328 13.9327 18.8347 13.8033C20.3004 13.1752 21.001 12.4653 21.001 12.0001C21.001 11.5348 20.3004 10.825 18.8347 10.1968C18.5328 10.0674 18.2105 9.94714 17.8705 9.83671C17.6491 10.5376 17.3739 11.263 17.0462 12.0001C17.3739 12.7371 17.6491 13.4625 17.8705 14.1634ZM16.4203 14.5515C16.3399 14.3007 16.2521 14.0467 16.1571 13.7903C16.0729 13.9435 15.9866 14.0968 15.8981 14.2501C15.8096 14.4033 15.72 14.5547 15.6294 14.7042C15.899 14.6583 16.1629 14.6074 16.4203 14.5515Z"></path>
  </symbol>
  <symbol xmlns="http://www.w3.org/2000/svg" viewBox="0 0 24 24" id="icon-html">
    <path d="M12 18.1778L16.6192 16.9222L17.2434 10.1444H9.02648L8.82219 7.88889H17.4477L17.6747 5.67778H6.32535L6.96091 12.3556H14.7806L14.5195 15.2222L12 15.8889L9.48045 15.2222L9.32156 13.3778H7.0517L7.38083 16.9222L12 18.1778ZM3 2H21L19.377 20L12 22L4.62295 20L3 2Z"></path>
  </symbol>
  <symbol xmlns="http://www.w3.org/2000/svg" viewBox="0 0 24 24" id="icon-javascript">
    <path d="M6 3C4.34315 3 3 4.34315 3 6V18C3 19.6569 4.34315 21 6 21H18C19.6569 21 21 19.6569 21 18V6C21 4.34315 19.6569 3 18 3H6ZM13.3344 16.055C14.0531 16.6343 14.7717 16.9203 15.4904 16.913C15.9304 16.913 16.2677 16.8323 16.5024 16.671C16.7297 16.517 16.8434 16.297 16.8434 16.011C16.8434 15.7177 16.7297 15.4683 16.5024 15.263C16.2677 15.0577 15.8241 14.8523 15.1714 14.647C14.3867 14.4197 13.7817 14.1263 13.3564 13.767C12.9384 13.4077 12.7257 12.9053 12.7184 12.26C12.7184 11.6513 12.9824 11.1417 13.5104 10.731C14.0237 10.3203 14.6801 10.115 15.4794 10.115C16.5941 10.115 17.4887 10.3863 18.1634 10.929L17.3934 12.128C17.1221 11.9153 16.8104 11.7613 16.4584 11.666C16.1064 11.556 15.7911 11.501 15.5124 11.501C15.1311 11.501 14.8267 11.5707 14.5994 11.71C14.3721 11.8493 14.2584 12.0327 14.2584 12.26C14.2584 12.5093 14.3977 12.722 14.6764 12.898C14.9551 13.0667 15.4317 13.2537 16.1064 13.459C16.9204 13.701 17.4997 14.0237 17.8444 14.427C18.1891 14.8303 18.3614 15.3437 18.3614 15.967C18.3614 16.605 18.1157 17.155 17.6244 17.617C17.1404 18.0717 16.4364 18.31 15.5124 18.332C14.3024 18.332 13.2904 17.969 12.4764 17.243L13.3344 16.055ZM7.80405 16.693C8.03872 16.8397 8.32105 16.913 8.65105 16.913C8.99572 16.913 9.28172 16.814 9.50905 16.616C9.73639 16.4107 9.85005 16.055 9.85005 15.549V10.247H11.3351V15.835C11.3131 16.7003 11.0637 17.3237 10.5871 17.705C10.3157 17.9323 10.0187 18.0937 9.69605 18.189C9.37339 18.2843 9.06172 18.332 8.76105 18.332C8.21105 18.332 7.72339 18.2367 7.29805 18.046C6.84339 17.8407 6.46205 17.4777 6.15405 16.957L7.18805 16.11C7.37872 16.3667 7.58405 16.561 7.80405 16.693Z"></path>
  </symbol>
  <symbol xmlns="http://www.w3.org/2000/svg" viewBox="0 0 24 24" id="icon-php">
    <path d="M4.931 9.45962H3.59366L2.86408 13.211H4.05124C4.83891 13.211 5.42541 13.0622 5.81074 12.7661C6.19608 12.4686 6.45533 11.9742 6.58991 11.28C6.72024 10.6142 6.66075 10.1439 6.41425 9.87045C6.16633 9.59703 5.67333 9.45962 4.931 9.45962ZM7.38183 13.6133C7.01208 13.9675 6.56725 14.2338 6.08275 14.3939C5.60675 14.5469 4.999 14.6262 4.26233 14.6262H2.58924L2.126 17.0076H0.173828L1.91633 8.04578H5.67049C6.79958 8.04578 7.62266 8.34187 8.14116 8.93545C8.65966 9.52762 8.81549 10.355 8.60866 11.4175C8.52944 11.8379 8.38357 12.243 8.17658 12.6174C7.97399 12.9786 7.70908 13.3115 7.38183 13.6133ZM13.0825 14.6262L13.8517 10.661C13.941 10.2105 13.907 9.90162 13.7554 9.7387C13.6038 9.57437 13.2794 9.4922 12.7822 9.4922H11.2352L10.2378 14.6276H8.29983L10.0423 5.66437H11.9789L11.5157 8.0472H13.2412C14.3277 8.0472 15.0757 8.23703 15.488 8.61528C15.9002 8.99353 16.0235 9.60695 15.8606 10.4555L15.0502 14.6262H13.0825ZM23.8449 11.4175C23.767 11.8382 23.621 12.2435 23.4128 12.6174C23.2102 12.9786 22.9453 13.3115 22.6181 13.6133C22.2481 13.9664 21.8044 14.233 21.319 14.3939C20.843 14.5469 20.2352 14.6262 19.4972 14.6262H17.8255L17.3622 17.009H15.4101L17.1526 8.0472H20.9053C22.0344 8.0472 22.8575 8.34328 23.376 8.93687C23.8945 9.52762 24.0517 10.355 23.8449 11.4175ZM20.1687 9.45962H18.8327L18.1017 13.211H19.2889C20.078 13.211 20.6645 13.0622 21.0484 12.7661C21.4337 12.4686 21.693 11.9742 21.829 11.28C21.9593 10.6142 21.8984 10.1439 21.6519 9.87045C21.4054 9.59703 20.9096 9.45962 20.1687 9.45962Z"></path>
  </symbol>
  <symbol xmlns="http://www.w3.org/2000/svg" viewBox="0 0 24 24" id="icon-gamepad">
    <path d="M17 4C20.3137 4 23 6.68629 23 10V14C23 17.3137 20.3137 20 17 20H7C3.68629 20 1 17.3137 1 14V10C1 6.68629 3.68629 4 7 4H17ZM17 6H7C4.8578 6 3.10892 7.68397 3.0049 9.80036L3 10V14C3 16.1422 4.68397 17.8911 6.80036 17.9951L7 18H17C19.1422 18 20.8911 16.316 20.9951 14.1996L21 14V10C21 7.8578 19.316 6.10892 17.1996 6.0049L17 6ZM10 9V11H12V13H9.999L10 15H8L7.999 13H6V11H8V9H10ZM18 13V15H16V13H18ZM16 9V11H14V9H16Z">
    </path>
  </symbol>
  <symbol xmlns="http://www.w3.org/2000/svg" viewBox="0 -960 960 960" id="icon-night">
    <path d="M380-160q133 0 226.5-93.5T700-480q0-133-93.5-226.5T380-800h-21q-10 0-19 2 57 66 88.5 147.5T460-480q0 89-31.5 170.5T340-162q9 2 19 2h21Zm0 80q-53 0-103.5-13.5T180-134q93-54 146.5-146T380-480q0-108-53.5-200T180-826q46-27 96.5-40.5T380-880q83 0 156 31.5T663-763q54 54 85.5 127T780-480q0 83-31.5 156T663-197q-54 54-127 85.5T380-80Zm80-400Z">
    </path>
  </symbol>
  <symbol xmlns="http://www.w3.org/2000/svg" viewBox="0 -960 960 960" id="icon-day">
    <path d="M480-360q50 0 85-35t35-85q0-50-35-85t-85-35q-50 0-85 35t-35 85q0 50 35 85t85 35Zm0 80q-83 0-141.5-58.5T280-480q0-83 58.5-141.5T480-680q83 0 141.5 58.5T680-480q0 83-58.5 141.5T480-280ZM200-440H40v-80h160v80Zm720 0H760v-80h160v80ZM440-760v-160h80v160h-80Zm0 720v-160h80v160h-80ZM256-650l-101-97 57-59 96 100-52 56Zm492 496-97-101 53-55 101 97-57 59Zm-98-550 97-101 59 57-100 96-56-52ZM154-212l101-97 55 53-97 101-59-57Zm326-268Z">
    </path>
  </symbol>
  <symbol xmlns="http://www.w3.org/2000/svg" viewBox="0 -960 960 960" id="icon-download">
    <path d="M480-320 280-520l56-58 104 104v-326h80v326l104-104 56 58-200 200ZM240-160q-33 0-56.5-23.5T160-240v-120h80v120h480v-120h80v120q0 33-23.5 56.5T720-160H240Z">
    </path>
  </symbol>
  <symbol xmlns="http://www.w3.org/2000/svg" viewBox="0 -960 960 960" id="icon-folder">
    <path d="M160-240v-480 520-40Zm0 80q-33 0-56.5-23.5T80-240v-480q0-33 23.5-56.5T160-800h240l80 80h320q33 0 56.5 23.5T880-640v200h-80v-200H447l-80-80H160v480h200v80H160ZM584-56 440-200l144-144 56 57-87 87 87 87-56 57Zm192 0-56-57 87-87-87-87 56-57 144 144L776-56Z">
    </path>
  </symbol>
  <symbol xmlns="http://www.w3.org/2000/svg" viewBox="0 0 640 640" id="icon-dart">
    <path d="M442.6 142.9C439.8 142.8 437 142.7 434.1 142.7L170 142.7L313.2 70.7C320.6 66.3 332 64 343.6 64C357.1 64 373 73.2 380.6 80.8L442.6 142.8L442.6 142.9zM171.3 160.5L434.1 160.5C450.1 160.5 459.5 161.9 469.5 169.8L576 276.2L576 485L496.7 485.7L171.3 160.5zM160.5 437L160.5 174.8L484.3 498.6L485 576L272.8 576L174.7 477.8C163.4 466.5 160.5 462.5 160.5 437zM142.7 169.3L142.7 437C142.7 440.3 142.8 443.3 142.9 446.1L80.9 384.1C70.5 373.3 64 358.3 64 343.6C64 336.8 67.9 326.1 70.7 320L142.7 169.3z">
    </path>
  </symbol>
  <symbol xmlns="http://www.w3.org/2000/svg" viewBox="0 0 24 24" id="icon-tailwind">
    <path d="M11.9996 4.85999C8.82628 4.85999 6.84294 6.44665 6.04961 9.61999C7.23961 8.03332 8.62794 7.43832 10.2146 7.83499C11.12 8.06109 11.7666 8.71757 12.4835 9.44545C13.6507 10.6295 15.0004 12 17.9496 12C21.1229 12 23.1063 10.4133 23.8996 7.23998C22.7096 8.82665 21.3213 9.42165 19.7346 9.02499C18.8292 8.79889 18.1827 8.1424 17.4657 7.41452C16.2995 6.23047 14.9498 4.85999 11.9996 4.85999ZM6.04961 12C2.87628 12 0.892943 13.5867 0.0996094 16.76C1.28961 15.1733 2.67794 14.5783 4.26461 14.975C5.17 15.2011 5.81657 15.8576 6.53354 16.5855C7.70073 17.7695 9.05039 19.14 11.9996 19.14C15.1729 19.14 17.1563 17.5533 17.9496 14.38C16.7596 15.9667 15.3713 16.5617 13.7846 16.165C12.8792 15.9389 12.2326 15.2824 11.5157 14.5545C10.3495 13.3705 8.99982 12 6.04961 12Z">
    </path>
  </symbol>
  <symbol xmlns="http://www.w3.org/2000/svg" viewBox="0 -960 960 960" id="icon-close">
    <path d="m256-200-56-56 224-224-224-224 56-56 224 224 224-224 56 56-224 224 224 224-56 56-224-224-224 224Z"> </path>
  </symbol>
  <symbol xmlns="http://www.w3.org/2000/svg" viewBox="0 -960 960 960" id="icon-print">
    <path d="M640-640v-120H320v120h-80v-200h480v200h-80Zm-480 80h640-640Zm560 100q17 0 28.5-11.5T760-500q0-17-11.5-28.5T720-540q-17 0-28.5 11.5T680-500q0 17 11.5 28.5T720-460Zm-80 260v-160H320v160h320Zm80 80H240v-160H80v-240q0-51 35-85.5t85-34.5h560q51 0 85.5 34.5T880-520v240H720v160Zm80-240v-160q0-17-11.5-28.5T760-560H200q-17 0-28.5 11.5T160-520v160h80v-80h480v80h80Z">
    </path>
  </symbol>  
  <symbol xmlns="http://www.w3.org/2000/svg" viewBox="0 -960 960 960" id="icon-preview">
    <path d="M200-120q-33 0-56.5-23.5T120-200v-560q0-33 23.5-56.5T200-840h560q33 0 56.5 23.5T840-760v560q0 33-23.5 56.5T760-120H200Zm0-80h560v-480H200v480Zm280-80q-82 0-146.5-44.5T240-440q29-71 93.5-115.5T480-600q82 0 146.5 44.5T720-440q-29 71-93.5 115.5T480-280Zm0-60q56 0 102-26.5t72-73.5q-26-47-72-73.5T480-540q-56 0-102 26.5T306-440q26 47 72 73.5T480-340Zm0-100Zm0 60q25 0 42.5-17.5T540-440q0-25-17.5-42.5T480-500q-25 0-42.5 17.5T420-440q0 25 17.5 42.5T480-380Z">
    </path>
  </symbol>
</svg>
